Coordinates
version=1
nRows=9
nColumns=24
inDegrees=yes

Units are S.I. units (second, meters, Newtons, ...)
Angles are in degrees.

endheader
time	pelvis_tilt	pelvis_list	pelvis_rotation	pelvis_tx	pelvis_ty	pelvis_tz	hip_flexion_r	hip_adduction_r	hip_rotation_r	knee_angle_r	ankle_angle_r	subtalar_angle_r	mtp_angle_r	hip_flexion_l	hip_adduction_l	hip_rotation_l	knee_angle_l	ankle_angle_l	subtalar_angle_l	mtp_angle_l	lumbar_extension	lumbar_bending	lumbar_rotation
      0.45800000	     -7.27730285	      4.32089555	     -1.38386193	     -0.82990590	      1.02746244	      0.26431785	     36.28942024	     -3.16157882	      2.58099789	     -6.28664032	     11.03034408	     -4.22603256	      8.32739863	     -9.60735879	      5.80035703	      2.37118623	     -4.36037279	     19.13134162	      6.02899037	      1.99059431	    -13.22259609	     -3.86485616	     -5.02483853
      0.46216667	     -7.29432111	      4.32718361	     -1.21157803	     -0.82413804	      1.02656181	      0.26443297	     36.21003196	     -3.22008448	      2.80387763	     -6.59372505	     11.00941716	     -4.25529035	      8.33007249	     -9.75338699	      5.76501731	      2.48630567	     -4.74028328	     19.25782419	      6.09317292	      2.00317781	    -13.18779083	     -3.74595832	     -5.04101635
      0.46633333	     -7.34509817	      4.31761453	     -1.03703790	     -0.81831865	      1.02565347	      0.26458656	     36.13064416	     -3.25620935	      3.08295139	     -6.86035677	     10.86018914	     -4.45206708	      8.34130735	     -9.80834252	      5.69976255	      2.39048332	     -5.23643000	     19.44562366	      6.51440612	      2.06595007	    -13.11415816	     -3.58504442	     -5.18811646
      0.47050000	     -7.35747846	      4.29865247	     -0.87241444	     -0.81246381	      1.02483806	      0.26474002	     36.01333154	     -3.28353702	      3.27355026	     -7.15966095	     10.72542174	     -4.54888727	      8.36306972	     -9.91501948	      5.62586766	      2.32993516	     -5.71074863	     19.60687815	      6.87277059	      2.16148638	    -13.08698909	     -3.43032085	     -5.19659991
      0.47466667	     -7.39714999	      4.28465973	     -0.69993675	     -0.80659038	      1.02402149	      0.26489025	     35.91775913	     -3.31710692	      3.44363497	     -7.46352919	     10.53704395	     -4.66190621	      8.38918522	     -9.98188470	      5.55471181	      2.31207144	     -6.21215120	     19.74428229	      7.17877040	      2.26908281	    -13.01585607	     -3.27158355	     -5.24397591
      0.47883333	     -7.43179318	      4.25604346	     -0.53887559	     -0.80066131	      1.02326675	      0.26507126	     35.80627737	     -3.32976911	      3.57627300	     -7.76723463	     10.31186182	     -4.79180658	      8.42819647	    -10.03635832	      5.46449503	      2.21255918	     -6.75310635	     19.85300229	      7.53381948	      2.41695613	    -12.95181590	     -3.10706389	     -5.27083733
      0.48300000	     -7.48389354	      4.21796393	     -0.36484805	     -0.79469893	      1.02254549	      0.26521549	     35.70304758	     -3.34298024	      3.66013662	     -8.06771086	     10.02877206	     -4.89772170	      8.46306206	    -10.07878402	      5.36280492	      2.18999290	     -7.27765787	     19.93899525	      7.84025366	      2.55665289	    -12.86444681	     -2.91061687	     -5.28663933
      0.48716667	     -7.51428992	      4.17362849	     -0.21047612	     -0.78873766	      1.02190208	      0.26542683	     35.57722511	     -3.33620347	      3.73324408	     -8.37453763	      9.70263539	     -5.07405868	      8.51686304	    -10.09883558	      5.24806143	      2.02116415	     -7.89581761	     20.01565456	      8.26122963	      2.76518523	    -12.80182341	     -2.73138903	     -5.31241807
      0.49133333	     -7.54655375	      4.12259087	     -0.06176045	     -0.78275755	      1.02130783	      0.26563551	     35.45636412	     -3.32284500	      3.76271295	     -8.69185104	      9.32788824	     -5.22224860	      8.58206999	    -10.11516028	      5.12663871	      1.88403883	     -8.51546120	     20.07426231	      8.66704585	      3.01928786	    -12.73913060	     -2.53506901	     -5.30269509
